<?xml version="1.0" encoding="utf-8"?>
<!-- Generator: Adobe Illustrator 23.0.2, SVG Export Plug-In . SVG Version: 6.00 Build 0)  -->
<svg version="1.2" baseProfile="tiny" id="Capa_1" xmlns="http://www.w3.org/2000/svg" xmlns:xlink="http://www.w3.org/1999/xlink"
	 x="0px" y="0px" viewBox="0 0 500 500" xml:space="preserve">
<g>
	<path fill="#FFFFFF" d="M375,0.1L310.1,0c-72.8,0-119.9,48.3-119.9,123.1v56.7H125c-5.6,0-10.2,4.6-10.2,10.2v82.2
		c0,5.6,4.6,10.2,10.2,10.2h65.2v207.4c0,5.6,4.6,10.2,10.2,10.2h85.1c5.6,0,10.2-4.6,10.2-10.2V282.4h76.2
		c5.6,0,10.2-4.6,10.2-10.2l0-82.2c0-2.7-1.1-5.3-3-7.2s-4.5-3-7.2-3h-76.3v-48.1c0-23.1,5.5-34.9,35.6-34.9l43.7,0
		c5.6,0,10.2-4.6,10.2-10.2V10.3C385.2,4.7,380.6,0.1,375,0.1z"/>
</g>
</svg>
