<?xml version="1.0" encoding="utf-8"?>
<!-- Generator: Adobe Illustrator 23.0.2, SVG Export Plug-In . SVG Version: 6.00 Build 0)  -->
<svg version="1.2" baseProfile="tiny" id="Capa_1" xmlns="http://www.w3.org/2000/svg" xmlns:xlink="http://www.w3.org/1999/xlink"
	 x="0px" y="0px" viewBox="0 0 500 500" xml:space="preserve">
<g>
	<path fill="#FFFFFF" d="M427.2,48.4c48.4,1.3,72.6,28.7,72.8,82.5c0,3.5-0.1,7.2-0.3,11c-2.1,45.5-36,107.6-101.8,186.1
		C330,410.2,272.5,451.4,225.2,451.6c-29.4,0-53.8-25.2-73.4-75.6L131.2,307l-20.3-69c-15-50-31-74.9-48.1-74.9
		c-3.7,0-16.7,7.3-39,21.8L0,156.8l36.8-30.6l36.2-30.3c32.5-26,57.1-40.1,74.1-42.1c2.3-0.2,4.5-0.3,6.8-0.3
		c34.8,0,56.5,25,65,74.9c4.7,28.5,8.7,51.7,11.9,69.5c3.1,17.8,5.7,30.3,7.7,37.3c11.5,47.2,23.9,71,37.2,71.2
		c10.2,0,26-15.4,47.2-46.2c20.8-31.6,31.9-55.1,33.4-70.3c0.5-3.1,0.6-6,0.6-8.7c0-20.7-11.4-30.9-34-30.9
		c-11.5,0-23.7,2.4-36.9,7.2c23.5-72.5,68.7-108.7,135.5-109C423.4,48.4,425.3,48.4,427.2,48.4z"/>
</g>
</svg>
