<?xml version="1.0" encoding="utf-8"?>
<!-- Generator: Adobe Illustrator 23.0.2, SVG Export Plug-In . SVG Version: 6.00 Build 0)  -->
<svg version="1.2" baseProfile="tiny" id="Capa_1" xmlns="http://www.w3.org/2000/svg" xmlns:xlink="http://www.w3.org/1999/xlink"
	 x="0px" y="0px" viewBox="0 0 500 500" xml:space="preserve">
<g>
	<path id="LinkedIn" fill="#FFFFFF" d="M500,304v184.9H392.8V316.4c0-43.3-15.5-72.9-54.3-72.9c-29.6,0-47.2,19.9-55,39.2
		c-2.8,6.9-3.6,16.5-3.6,26.1v180H172.8c0,0,1.4-292.1,0-322.4H280v45.7c-0.2,0.3-0.5,0.7-0.7,1h0.7v-1
		c14.2-21.9,39.7-53.3,96.6-53.3C447.1,158.9,500,205,500,304z M60.7,11.1C24,11.1,0,35.2,0,66.8c0,30.9,23.3,55.7,59.2,55.7H60
		c37.4,0,60.6-24.8,60.6-55.7C119.9,35.2,97.3,11.1,60.7,11.1z M6.4,488.9h107.2V166.5H6.4V488.9z"/>
</g>
</svg>
